<svg class="icon" style="width: 1em;height: 1em;vertical-align: middle;fill: currentColor;overflow: hidden;" viewBox="0 0 1024 1024" version="1.1" xmlns="http://www.w3.org/2000/svg" p-id="26420"><path d="M509.9008 956.16c-112.4864 0-232.5632-35.0464-321.216-93.76-80.1664-53.0944-175.744-152.3072-175.744-323.456 0-67.3536 13.1712-132.6208 39.1424-193.9584 25.1648-59.456 61.2608-112.768 107.2768-158.464C254.1568 92.352 381.2352 40.4864 517.184 40.4864c65.4208 0 129.2672 13.1968 189.7472 39.232 58.4832 25.1648 111.168 61.12 156.5824 106.8544 45.568 45.888 81.3824 99.1744 106.4704 158.4 26.0864 61.5936 39.3088 126.848 39.3088 193.9712 0 73.1264-16.3328 139.0592-48.5376 195.9424-28.7616 50.7904-70.0544 94.2976-122.7392 129.3184C750.1056 922.6496 630.5152 956.16 509.9008 956.16z" fill="#FFEB73" p-id="26421"></path><path d="M517.184 53.2864c260.2624 0 479.3088 217.5872 479.3088 485.6576C996.4928 838.656 717.1968 943.36 509.9008 943.36c-192.192 0-484.16-109.5552-484.16-404.416 0-268.0704 216.5504-485.6576 491.4432-485.6576m0-25.6c-70.5408 0-138.7136 13.5168-202.6112 40.1536-61.6704 25.7152-116.9152 62.5792-164.2368 109.5808-47.1936 46.8736-84.2112 101.568-110.0416 162.56C13.6576 402.9184 0.1408 469.8624 0.1408 538.944c0 139.968 62.7584 255.5136 181.4784 334.1312 48.1152 31.8592 103.5648 56.512 164.8 73.2544C400.5504 961.1392 457.088 968.96 509.9008 968.96c56.5632 0 115.3408-7.5648 169.9712-21.8752 61.9904-16.2432 117.5808-40.5376 165.2352-72.2176 54.3744-36.1472 97.024-81.1136 126.784-133.6704 33.3056-58.8288 50.2016-126.8736 50.2016-202.2528 0-68.8384-13.568-135.7824-40.32-198.9504-25.7152-60.736-62.4512-115.392-109.1712-162.432-46.5792-46.8992-100.608-83.776-160.6016-109.5936-62.1056-26.7264-127.6416-40.2816-194.816-40.2816z" fill="#231815" p-id="26422"></path><path d="M512 857.9328c-137.3696 0-251.6608-99.6096-272.6272-230.6944-3.1488-22.016 13.632-41.9328 36.6976-41.9328h471.8592c23.0656 0 39.8464 19.9168 36.6976 41.9328C763.6608 758.3232 649.3568 857.9328 512 857.9328z" fill="#873A18" p-id="26423"></path><path d="M749.5936 585.3056H276.1984c-23.1424 0-40.3712 19.8144-36.8256 41.9328 0.9728 6.0928 1.7152 13.568 4.2112 22.016h537.2928c1.8048-7.3856 3.4304-14.6816 4.48-22.016 3.1872-22.1824-13.6704-41.9328-35.7632-41.9328z" fill="#FFFFFF" p-id="26424"></path><path d="M589.5936 712.1792c-31.4624 0-59.776 15.7312-77.5936 39.8464-16.7808-24.1152-45.0944-39.8464-77.5936-39.8464-49.28 0-90.176 37.7472-94.3744 85.9776 47.1808 37.7472 106.9568 59.776 171.968 59.776s124.7744-22.016 171.968-59.776c-4.1984-48.2304-45.0944-85.9776-94.3744-85.9776z" fill="#F44444" p-id="26425"></path><path d="M222.7456 361.9968a11.52256 11.52256 0 0 1-8.2048-19.6096c34.3168-34.8032 82.3296-49.9584 138.816-43.8144 19.9552 2.1632 37.5808 6.6048 50.7008 10.7008-37.12-76.5696-151.36-90.4192-152.6144-90.56-6.3232-0.7168-10.8672-6.4256-10.1504-12.7488 0.7168-6.3232 6.4128-10.88 12.7488-10.1504 1.5488 0.1792 38.336 4.4928 78.848 22.208 54.9376 24.0256 90.048 61.3248 101.5296 107.8656a11.51616 11.51616 0 0 1-16.0256 13.2096c-0.2816-0.128-29.9648-13.6576-68.1472-17.7024-49.664-5.248-89.8048 7.2576-119.2832 37.1584a11.48416 11.48416 0 0 1-8.2176 3.4432zM802.4832 361.9968c-2.9696 0-5.952-1.152-8.2048-3.4304-71.168-72.1792-186.2784-19.9936-187.4432-19.456a11.51488 11.51488 0 0 1-16.0256-13.2096c11.4816-46.5408 46.592-83.84 101.5296-107.8656 40.512-17.7152 77.2992-22.0288 78.848-22.208 6.3232-0.7168 12.032 3.8272 12.7488 10.1504 0.7168 6.3232-3.8272 12.0192-10.1504 12.7488-0.5632 0.064-35.4688 4.2496-72.7424 20.6464-39.0912 17.2032-65.8816 40.6656-79.936 69.9264 13.12-4.1088 30.7712-8.5504 50.752-10.7264 56.4992-6.144 104.4992 9.0112 138.8288 43.8144a11.52256 11.52256 0 0 1-8.2048 19.6096z" fill="#231815" p-id="26426"></path><path d="M205.3632 462.3872c-32.1664 0-58.24 26.0864-58.24 58.24h116.4928c0-32.1536-26.0736-58.24-58.2528-58.24zM785.0112 462.3872c-32.1664 0-58.24 26.0864-58.24 58.24h116.4928c-0.0128-32.1536-26.0736-58.24-58.2528-58.24z" fill="#FFB0C8" p-id="26427"></path></svg>