<svg class="icon" style="width: 1em;height: 1em;vertical-align: middle;fill: currentColor;overflow: hidden;" viewBox="0 0 1024 1024" version="1.1" xmlns="http://www.w3.org/2000/svg" p-id="17415"><path d="M99.754667 528.042667c17.365333-20.096 47.786667-20.096 67.328-2.218667l-65.194667-64.810667c-21.717333-20.096-21.717333-55.850667-2.133333-78.208 19.541333-22.314667 54.272-22.314667 76.032-2.218666l2.133333 2.218666a58.538667 58.538667 0 0 1-2.133333-82.645333c21.717333-22.357333 58.624-24.576 80.341333-2.218667l36.949333 35.754667c-21.76-20.138667-21.76-55.893333-2.176-78.208 19.541333-22.357333 54.314667-22.357333 76.032-2.218667l193.322667 192.128c-23.893333-35.754667-15.189333-100.565333 21.76-120.661333 15.189333-8.96 34.730667-2.218667 45.610667 13.397333l93.397333 125.098667c80.384 134.058667 60.8 303.829333-43.434667 417.792-76.032 82.645333-204.202667 84.906667-284.586666 6.698667l-291.114667-290.432c-19.541333-17.877333-19.541333-49.152-2.133333-69.248z" fill="#FB9F2C" p-id="17416"></path><path d="M670.208 537.941333l-97.749333-96.085333a11.178667 11.178667 0 1 0-15.658667 15.957333l97.706667 96.042667a11.178667 11.178667 0 0 0 15.701333-15.914667z" fill="#F5A623" p-id="17417"></path><path d="M755.925333 318.037333l115.157334-37.973333c6.528-2.218667 8.704-8.96 6.528-13.397333l-30.421334-51.370667c-2.176-4.48-8.704-4.48-13.056 0L749.44 304.64c-6.528 6.698667-2.176 15.658667 6.485333 13.397333zM692.949333 264.405333l56.490667-109.44c2.133333-4.48 0-11.178667-4.352-13.397333l-56.490667-15.658667c-4.352-2.218667-10.837333 2.218667-10.837333 8.96v125.098667c0 8.96 10.837333 11.178667 15.189333 4.437333zM366.933333 181.76l60.8-109.482667c2.176-4.437333 0-11.136-4.309333-13.397333L366.933333 43.264c-4.352-2.261333-10.88 2.218667-10.88 8.96l-4.352 125.056c0 8.96 10.88 11.178667 15.232 4.48zM284.373333 188.458667L253.952 67.84c-2.133333-6.698667-6.485333-8.96-13.013333-6.698667l-49.962667 29.013334c-6.528 2.261333-6.528 8.96-2.176 13.44L271.36 195.157333c6.485333 6.698667 15.189333 0 13.013333-6.698666z" fill="#FB9F2C" p-id="17418"></path><path d="M240.938667 577.194667c17.365333-20.096 47.786667-20.096 67.328-2.218667l-65.152-64.810667c-21.76-20.053333-21.76-55.850667-2.176-78.165333 19.541333-22.357333 54.314667-22.357333 76.032-2.261333l2.133333 2.261333a58.538667 58.538667 0 0 1-2.133333-82.688c21.717333-22.314667 58.666667-24.576 80.384-2.218667l36.906666 35.754667c-21.717333-20.096-21.717333-55.893333-2.133333-78.208 19.541333-22.314667 54.272-22.314667 75.989333-2.218667l193.365334 192.128c-23.893333-35.754667-15.232-100.522667 21.717333-120.661333 15.189333-8.917333 34.730667-2.218667 45.610667 13.44l93.44 125.098667c80.341333 134.016 60.8 303.786667-43.477334 417.749333-76.032 82.688-204.202667 84.906667-284.586666 6.698667L240.938667 644.266667c-17.365333-17.877333-19.541333-49.152 0-66.986667z" fill="#FFD200" p-id="17419"></path></svg>