<svg class="icon" style="width: 1em;height: 1em;vertical-align: middle;fill: currentColor;overflow: hidden;" viewBox="0 0 1024 1024" version="1.1" xmlns="http://www.w3.org/2000/svg" p-id="56212"><path d="M489.1 203.63c38.98-5.26 79.54 2.31 114 21.28 28.43 15.58 52.69 38.71 69.58 66.38 5.89 9.79 11.9 19.54 16.62 29.97-34.43 5.94-67.26 21.38-93.45 44.55-24.42 21.31-43.05 49.24-53.16 80.03-13.41 39.8-12.93 84.11 1.8 123.48-16.66 2.63-33.59 3.92-50.44 2.76-16.95-1.03-34-3.76-49.73-10.37-46.68-18.46-85.06-56.63-103.73-103.22-20.53-50.09-17.63-109.11 7.86-156.88 15.91-30.26 40.34-55.94 69.71-73.42 21.67-12.84 45.93-21.4 70.94-24.56m17.49 74.14c-6.85 1.69-13.11 5.7-17.52 11.22-9.63 11.62-9.4 29.97 0.62 41.29 9.86 12.15 28.89 15.06 41.97 6.49 13.48-8.07 19.12-26.58 12.37-40.78-5.98-14.04-22.68-22.2-37.44-18.22z" fill="#FFFFFF" p-id="56213"></path><path d="M510.49 290.52c4.92-2.06 11.13 1.26 12.05 6.54 1.2 4.88-2.51 10.13-7.47 10.76-4.81 0.81-9.81-2.92-10.26-7.8-0.57-3.99 1.9-8.11 5.68-9.5z" fill="#FFFFFF" p-id="56214"></path><path d="M248.65 215.79c1.18-42.72 10.42-85.2 26.99-124.6 49.91 34.29 112.03 50.39 172.31 44.32 7.35-0.86 14.62-2.39 22-3.08 46.65-5.41 94.92 4.56 135.61 28 31.02 17.74 57.48 43.22 76.71 73.31 16.51 25.64 27.2 54.81 32.23 84.84-8.45 0.37-16.87 1.25-25.2 2.68-4.72-10.43-10.73-20.18-16.62-29.97-16.89-27.67-41.15-50.8-69.58-66.38-34.46-18.97-75.02-26.54-114-21.28-25.01 3.16-49.27 11.72-70.94 24.56-29.37 17.48-53.8 43.16-69.71 73.42-25.49 47.77-28.39 106.79-7.86 156.88 18.67 46.59 57.05 84.76 103.73 103.22 15.73 6.61 32.78 9.34 49.73 10.37 16.85 1.16 33.78-0.13 50.44-2.76 0.32-0.04 0.97-0.1 1.29-0.14 3.9 10.2 8.51 20.14 14.14 29.5 16.96 28.64 41.79 52.55 71.04 68.42 42.48 23.47 94.32 28.94 140.84 15.17 28.28-8.18 54.48-23.3 75.82-43.56 28.5-27.03 48.01-63.23 55.01-101.88 0.37 1.42 0.74 2.85 1.06 4.31-1.97 47.34-12.42 94.37-30.94 138.01a396.18 396.18 0 0 1-40.33 72.78c-27.85 39.76-63.07 74.35-103.41 101.35-41.73 28.02-88.95 47.77-138.15 58.03-66.66 14.09-136.98 10.54-201.78-10.56-64.95-20.95-124.2-59.14-170.16-109.58-48.08-52.48-81.27-118.35-95.05-188.17-14.15-69.71-9.09-143.19 14.8-210.22 9.52-26.9 21.99-52.76 37.1-76.97 1.17-1.91 2.51-3.73 3.46-5.77 0.22-2.07-0.3-4.12-0.51-6.16-4.92-40.28-0.92-81.57 11.37-120.23 18.07 13.11 37.79 23.95 58.56 32.14z" fill="#F05549" p-id="56215"></path><path d="M650.7 156.25c67.42 25.76 127.46 70.47 171.45 127.7 40.14 51.94 66.7 114.17 76.79 179.01 4.2 25.83 5.29 52.05 4.75 78.18-0.32-1.46-0.69-2.89-1.06-4.31-7 38.65-26.51 74.85-55.01 101.88-7.52-12.45-15.28-24.76-22.9-37.15-0.42 0.29-1.25 0.87-1.67 1.15 4.3-14.69 3.81-30.74-1.52-45.11-5.44-14.75-15.85-27.62-29.18-35.96-12.54-7.89-27.55-11.76-42.34-10.94-16.22 0.79-32.04 7.37-44.16 18.16-11.49 10.13-19.61 24.03-22.71 39.04-3.27 15.25-1.43 31.57 5.31 45.65 7.28 15.46 20.26 28.15 35.92 35.01 7.53 3.45 15.71 5.1 23.89 6.17 7.64 9.35 15.66 18.39 23.54 27.54-46.52 13.77-98.36 8.3-140.84-15.17-29.25-15.87-54.08-39.78-71.04-68.42 33.51-8.51 65.24-24 92.45-45.35 25.88-20.18 47.69-45.53 63.88-74.07 20.6-36.22 32.03-77.63 32.66-119.3 0.62-40.46-8.45-81.13-26.73-117.26-16.79-33.8-41.63-63.42-71.48-86.45z" fill="#C5392E" p-id="56216"></path><path d="M506.59 277.77c14.76-3.98 31.46 4.18 37.44 18.22 6.75 14.2 1.11 32.71-12.37 40.78-13.08 8.57-32.11 5.66-41.97-6.49-10.02-11.32-10.25-29.67-0.62-41.29 4.41-5.52 10.67-9.53 17.52-11.22m3.9 12.75c-3.78 1.39-6.25 5.51-5.68 9.5 0.45 4.88 5.45 8.61 10.26 7.8 4.96-0.63 8.67-5.88 7.47-10.76-0.92-5.28-7.13-8.6-12.05-6.54zM823.05 602.71c0.42-0.28 1.25-0.86 1.67-1.15 7.62 12.39 15.38 24.7 22.9 37.15-21.34 20.26-47.54 35.38-75.82 43.56-7.88-9.15-15.9-18.19-23.54-27.54 25.1-17.08 49.82-34.74 74.79-52.02zM832.42 751.93a396.18 396.18 0 0 0 40.33-72.78c22.34 36.29 44.87 72.47 67.21 108.77-3.03 5.12-7.59 9.07-12.1 12.84-8.36 6.77-17.64 12.44-27.61 16.47-3.43 1.33-6.94 2.7-10.66 2.76-3.75-5.64-8.68-10.37-12.93-15.62-14.61-17.18-29.58-34.1-43.98-51.43l-0.26-1.01z" fill="" p-id="56217"></path><path d="M689.3 321.26a200.88 200.88 0 0 1 25.2-2.68c8.04 46.28 2.2 94.92-16.97 137.83-6.65 14.68-14.45 28.96-24.2 41.82-7.57-21.26-26.04-38.29-48.03-43.63-15-4.26-30.55 0.2-45.8-1.6-12.51-0.86-24.87-3.37-36.81-7.16 10.11-30.79 28.74-58.72 53.16-80.03 26.19-23.17 59.02-38.61 93.45-44.55zM705.85 528.86c12.12-10.79 27.94-17.37 44.16-18.16 14.79-0.82 29.8 3.05 42.34 10.94 13.33 8.34 23.74 21.21 29.18 35.96 5.33 14.37 5.82 30.42 1.52 45.11-24.97 17.28-49.69 34.94-74.79 52.02-8.18-1.07-16.36-2.72-23.89-6.17-15.66-6.86-28.64-19.55-35.92-35.01-6.74-14.08-8.58-30.4-5.31-45.65 3.1-15.01 11.22-28.91 22.71-39.04z" fill="#FFCE49" p-id="56218"></path><path d="M542.69 445.84c11.94 3.79 24.3 6.3 36.81 7.16-1.94 17.13 1.81 34.83 10.7 49.62 8.58 14.74 22.26 26.31 38.04 32.7-24.08 17.85-52.73 29.8-82.46 33.86-0.32 0.04-0.97 0.1-1.29 0.14-14.73-39.37-15.21-83.68-1.8-123.48z" fill="#E79417" p-id="56219"></path></svg>