<svg class="icon" style="width: 1em;height: 1em;vertical-align: middle;fill: currentColor;overflow: hidden;" viewBox="0 0 1024 1024" version="1.1" xmlns="http://www.w3.org/2000/svg" p-id="14892"><path d="M512 512m-512 0a512 512 0 1 0 1024 0 512 512 0 1 0-1024 0Z" fill="#DE4444" opacity=".18" p-id="14893"></path><path d="M512 512m-468.736 0a468.736 468.736 0 1 0 937.472 0 468.736 468.736 0 1 0-937.472 0Z" fill="#DE4444" p-id="14894"></path><path d="M386.4576 676.608c-3.6608 3.4304-8.7296-0.4864-8.7296-7.3472l-1.3568-164.5056-1.3824-164.48c0-6.3744 4.5824-10.7776 8.2688-7.3472l95.4368 81.2544 95.4624 81.3824a11.1616 11.1616 0 0 1 0 14.6944l-94.208 83.1232z" fill="#FFFFFF" p-id="14895"></path><path d="M663.424 692.2752a46.7968 46.7968 0 0 1-43.264-49.4336v-247.2448a46.7968 46.7968 0 0 1 43.264-49.4592 46.7968 46.7968 0 0 1 43.264 49.4592v247.2448a46.7968 46.7968 0 0 1-43.264 49.4336z" fill="#FFFFFF" p-id="14896"></path></svg>