<svg class="icon" style="width: 1em;height: 1em;vertical-align: middle;fill: currentColor;overflow: hidden;" viewBox="0 0 1024 1024" version="1.1" xmlns="http://www.w3.org/2000/svg" p-id="9595"><path d="M512 0C229.229714 0 0 229.229714 0 512s229.229714 512 512 512 512-229.229714 512-512S794.770286 0 512 0z m180.333714 693.138286c-99.821714 99.803429-261.668571 99.803429-361.472 0A255.597714 255.597714 0 0 1 256 512.384a20.772571 20.772571 0 0 1 41.545143 0c0.146286 118.144 96.036571 213.796571 214.180571 213.650286 118.125714-0.146286 213.796571-96.036571 213.650286-214.180572-0.146286-118.125714-96.036571-213.796571-214.180571-213.650285a213.906286 213.906286 0 0 0-180.041143 98.834285h76.909714a20.772571 20.772571 0 0 1 0 41.545143h-123.117714c-0.475429 0-0.841143-0.146286-1.28-0.182857-0.457143-0.073143-1.115429-0.146286-1.645715-0.274286l-0.731428-0.182857a18.176 18.176 0 0 1-2.139429-0.548571l-0.530285-0.182857a29.842286 29.842286 0 0 1-20.406858-28.288v-125.988572a20.772571 20.772571 0 0 1 41.545143 0v86.802286c78.354286-117.430857 237.074286-149.101714 354.486857-70.729143 117.430857 78.354286 149.101714 237.056 70.729143 354.468571-9.508571 14.281143-20.461714 27.556571-32.64 39.643429z" fill="#E96149" opacity=".65" p-id="9596"></path></svg>