<svg class="icon" style="width: 1em;height: 1em;vertical-align: middle;fill: currentColor;overflow: hidden;" viewBox="0 0 1024 1024" version="1.1" xmlns="http://www.w3.org/2000/svg" p-id="50645"><path d="M512 64a448 448 0 1 1 0 896A448 448 0 0 1 512 64z m0 64a384 384 0 1 0 0 768A384 384 0 0 0 512 128z" fill="#2A82E2" p-id="50646"></path><path d="M384 320m32 0l0 0q32 0 32 32l0 320q0 32-32 32l0 0q-32 0-32-32l0-320q0-32 32-32Z" fill="#2A82E2" p-id="50647"></path><path d="M576 320m32 0l0 0q32 0 32 32l0 320q0 32-32 32l0 0q-32 0-32-32l0-320q0-32 32-32Z" fill="#2A82E2" p-id="50648"></path></svg>