<svg class="icon" style="width: 1em;height: 1em;vertical-align: middle;fill: currentColor;overflow: hidden;" viewBox="0 0 1024 1024" version="1.1" xmlns="http://www.w3.org/2000/svg" p-id="5759"><path d="M202.695111 981.333333A32.824889 32.824889 0 0 1 170.666667 949.304889V450.104889c0-17.066667 14.961778-31.971556 32.028444-31.971556 17.066667 0 31.971556 14.961778 31.971556 32.028445v499.143111c0 17.066667-14.961778 32.028444-32.028445 32.028444z m0-723.228444A32.824889 32.824889 0 0 1 170.666667 226.133333V74.638222c0-17.066667 14.961778-31.971556 32.028444-31.971555 17.066667 0 31.971556 14.904889 31.971556 32.028444v151.438222a31.402667 31.402667 0 0 1-32.028445 31.971556z" fill="#4E7AFF" p-id="5760"></path><path d="M202.695111 467.228444a128.398222 128.398222 0 0 1-128-128 128.398222 128.398222 0 0 1 128-128 128.398222 128.398222 0 0 1 128 128 128.398222 128.398222 0 0 1-128 128z m0-192c-36.295111 0-64.056889 27.704889-64.056889 64 0 36.238222 27.761778 64 64.056889 64 36.238222 0 63.943111-27.761778 63.943111-64 0-36.295111-29.866667-64-64-64zM512 603.761778a32.824889 32.824889 0 0 1-32.028444-32.028445V74.638222c0-17.066667 14.961778-31.971556 32.028444-31.971555 17.066667 0 32.028444 14.904889 32.028444 32.028444v499.143111c0 17.066667-14.961778 29.923556-32.028444 29.923556z m0 377.571555a32.824889 32.824889 0 0 1-32.028444-32.028444v-151.438222c0-17.066667 14.961778-32.028444 32.028444-32.028445 17.066667 0 32.028444 14.961778 32.028444 32.028445v151.438222c0 17.066667-14.961778 32.028444-32.028444 32.028444z" fill="#4E7AFF" p-id="5761"></path><path d="M512 812.771556a128.398222 128.398222 0 0 1-128-128A128.398222 128.398222 0 0 1 512 556.771556a128.398222 128.398222 0 0 1 128 128A128.398222 128.398222 0 0 1 512 812.771556z m0-192c-36.238222 0-64 27.761778-64 64 0 36.295111 27.761778 64 64 64s64-27.704889 64-64c0-34.133333-27.761778-64-64-64z m309.361778 360.561777a32.824889 32.824889 0 0 1-32.028445-32.028444V450.104889c0-17.066667 14.904889-31.971556 32.028445-31.971556 17.066667 0 31.971556 14.961778 31.971555 32.028445v499.143111c0 17.066667-14.904889 32.028444-32.028444 32.028444z m0-723.228444a32.824889 32.824889 0 0 1-32.028445-31.971556V74.638222c0-17.066667 14.904889-31.971556 32.028445-31.971555 17.066667 0 31.971556 14.904889 31.971555 32.028444v151.438222a31.402667 31.402667 0 0 1-32.028444 31.971556z" fill="#4E7AFF" p-id="5762"></path><path d="M821.361778 467.228444a128.398222 128.398222 0 0 1-128-128 128.398222 128.398222 0 0 1 128-128 128.398222 128.398222 0 0 1 128 128 128.398222 128.398222 0 0 1-128 128z m0-192c-36.295111 0-64.056889 27.704889-64.056889 64 0 36.238222 27.761778 64 64.056889 64 36.238222 0 63.943111-27.761778 63.943111-64 0-36.295111-29.809778-64-63.943111-64z" fill="#4E7AFF" p-id="5763"></path></svg>