<svg class="icon" style="width: 1em;height: 1em;vertical-align: middle;fill: currentColor;overflow: hidden;" viewBox="0 0 1024 1024" version="1.1" xmlns="http://www.w3.org/2000/svg" p-id="18195"><path d="M944.190039 80.175512a271.347518 271.347518 0 0 0-385.108685 0c-47.460217 47.716205-77.410839 115.962666-83.708149 180.625291l289.215496 290.751426c64.099451-6.758089 132.704296-36.9647 179.601338-84.168929a274.880156 274.880156 0 0 0 0-387.207788zM125.795686 741.649084a114.580329 114.580329 0 0 0-20.991035 132.499505 32.049726 32.049726 0 0 0-5.375753 4.3518L9.679427 968.710639a32.6129 32.6129 0 0 0-1.075151 45.258718 31.793737 31.793737 0 0 0 45.719497 0.614372l90.261448-90.773424a32.254516 32.254516 0 0 0 3.071859-3.583835 113.0444 113.0444 0 0 0 138.592025-17.253607l387.873358-331.914332L456.276483 352.239797l-330.480797 389.511682z" fill="#0094FF" p-id="18196"></path></svg>