<svg class="icon" style="width: 1.25em;height: 1em;vertical-align: middle;fill: currentColor;overflow: hidden;" viewBox="0 0 1280 1024" version="1.1" xmlns="http://www.w3.org/2000/svg" p-id="19955"><path d="M349.44 261.8112v478.57664H201.06752c-40.9088 0-74.07104-35.968-74.07104-79.03232v-320.52224c-0.00512-43.648 32.82432-79.03232 74.07104-79.03232l148.37248 0.01024zM586.70592 70.37952c32.74752-26.42432 59.31008-11.48928 59.31008 32.11776v797.23008c0 44.14976-26.32704 58.74176-59.31008 32.10752L349.44 740.38784V261.8112l237.26592-191.43168z" fill="#F99A1C" p-id="19956"></path><path d="M1004.41088 881.91488c195.44064-210.25792 195.44064-551.15776 0-761.40032-21.71904-23.36768-56.92928-23.36768-78.64832 0-21.7088 23.36256-21.7088 61.21984 0 84.5824 152.01792 163.54816 152.01792 428.69248 0 592.22528-21.7088 23.3472-21.7088 61.2352 0 84.59264 21.7088 23.3728 56.92928 23.3728 78.64832 0z" fill="#F99A1C" p-id="19957"></path><path d="M847.10912 712.71424c108.59008-116.80256 108.59008-306.19136 0-422.99392-21.69856-23.36256-56.91904-23.36256-78.63808 0-21.71904 23.36256-21.71904 61.21984 0 84.58752 65.16224 70.08256 65.16224 183.7056 0 253.7984-21.71904 23.36256-21.71904 61.23008 0 84.59776s56.93952 23.3728 78.63808 0.01024z" fill="#F99A1C" p-id="19958"></path></svg>